<?xml version="1.0" encoding="utf-8" standalone="no"?>
<!DOCTYPE svg PUBLIC "-//W3C//DTD SVG 1.1//EN"
  "http://www.w3.org/Graphics/SVG/1.1/DTD/svg11.dtd">
<svg height="489.71625pt" version="1.1" viewBox="0 0 516.201278 489.71625" width="516.201278pt" xmlns="http://www.w3.org/2000/svg" xmlns:xlink="http://www.w3.org/1999/xlink">
 <metadata>
  <rdf:RDF xmlns:cc="http://creativecommons.org/ns#" xmlns:dc="http://purl.org/dc/elements/1.1/" xmlns:rdf="http://www.w3.org/1999/02/22-rdf-syntax-ns#">
   <cc:Work>
    <dc:type rdf:resource="http://purl.org/dc/dcmitype/StillImage"/>
    <dc:date>2022-03-21T23:44:56.925444</dc:date>
    <dc:format>image/svg+xml</dc:format>
    <dc:creator>
     <cc:Agent>
      <dc:title>Matplotlib v3.4.3, https://matplotlib.org/</dc:title>
     </cc:Agent>
    </dc:creator>
   </cc:Work>
  </rdf:RDF>
 </metadata>
 <defs>
  <style type="text/css">*{stroke-linecap:butt;stroke-linejoin:round;}</style>
 </defs>
 <g id="figure_1">
  <g id="patch_1">
   <path d="M 0 489.71625 
L 516.201278 489.71625 
L 516.201278 0 
L 0 0 
z
" style="fill:#ffffff;"/>
  </g>
  <g id="axes_1">
   <g id="patch_2">
    <path d="M 35.304688 465.838125 
L 481.704687 465.838125 
L 481.704687 22.318125 
L 35.304688 22.318125 
z
" style="fill:#ffffff;"/>
   </g>
   <g id="PathCollection_1">
    <defs>
     <path d="M 0 3 
C 0.795609 3 1.55874 2.683901 2.12132 2.12132 
C 2.683901 1.55874 3 0.795609 3 0 
C 3 -0.795609 2.683901 -1.55874 2.12132 -2.12132 
C 1.55874 -2.683901 0.795609 -3 0 -3 
C -0.795609 -3 -1.55874 -2.683901 -2.12132 -2.12132 
C -2.683901 -1.55874 -3 -0.795609 -3 0 
C -3 0.795609 -2.683901 1.55874 -2.12132 2.12132 
C -1.55874 2.683901 -0.795609 3 0 3 
z
" id="m2ffa7efb16" style="stroke:#1f77b4;"/>
    </defs>
    <g clip-path="url(#p3be9faf75b)">
     <use style="fill:#1f77b4;stroke:#1f77b4;" x="377.253191" xlink:href="#m2ffa7efb16" y="138.210815"/>
     <use style="fill:#1f77b4;stroke:#1f77b4;" x="83.401701" xlink:href="#m2ffa7efb16" y="303.987918"/>
     <use style="fill:#1f77b4;stroke:#1f77b4;" x="150.68747" xlink:href="#m2ffa7efb16" y="129.260083"/>
     <use style="fill:#1f77b4;stroke:#1f77b4;" x="352.959368" xlink:href="#m2ffa7efb16" y="317.849833"/>
     <use style="fill:#1f77b4;stroke:#1f77b4;" x="271.512147" xlink:href="#m2ffa7efb16" y="445.678125"/>
     <use style="fill:#1f77b4;stroke:#1f77b4;" x="302.811375" xlink:href="#m2ffa7efb16" y="44.097214"/>
     <use style="fill:#1f77b4;stroke:#1f77b4;" x="68.684423" xlink:href="#m2ffa7efb16" y="231.670992"/>
     <use style="fill:#1f77b4;stroke:#1f77b4;" x="197.417883" xlink:href="#m2ffa7efb16" y="310.119853"/>
     <use style="fill:#1f77b4;stroke:#1f77b4;" x="339.179339" xlink:href="#m2ffa7efb16" y="42.478125"/>
     <use style="fill:#1f77b4;stroke:#1f77b4;" x="183.784338" xlink:href="#m2ffa7efb16" y="378.986697"/>
     <use style="fill:#1f77b4;stroke:#1f77b4;" x="461.413778" xlink:href="#m2ffa7efb16" y="92.031291"/>
     <use style="fill:#1f77b4;stroke:#1f77b4;" x="366.670592" xlink:href="#m2ffa7efb16" y="184.829485"/>
     <use style="fill:#1f77b4;stroke:#1f77b4;" x="331.652119" xlink:href="#m2ffa7efb16" y="411.724615"/>
     <use style="fill:#1f77b4;stroke:#1f77b4;" x="198.855598" xlink:href="#m2ffa7efb16" y="126.107541"/>
     <use style="fill:#1f77b4;stroke:#1f77b4;" x="157.968846" xlink:href="#m2ffa7efb16" y="224.484018"/>
     <use style="fill:#1f77b4;stroke:#1f77b4;" x="314.794561" xlink:href="#m2ffa7efb16" y="203.748118"/>
     <use style="fill:#1f77b4;stroke:#1f77b4;" x="320.993706" xlink:href="#m2ffa7efb16" y="370.193563"/>
     <use style="fill:#1f77b4;stroke:#1f77b4;" x="372.062411" xlink:href="#m2ffa7efb16" y="372.17013"/>
     <use style="fill:#1f77b4;stroke:#1f77b4;" x="385.380675" xlink:href="#m2ffa7efb16" y="422.861217"/>
     <use style="fill:#1f77b4;stroke:#1f77b4;" x="241.199244" xlink:href="#m2ffa7efb16" y="430.952373"/>
     <use style="fill:#1f77b4;stroke:#1f77b4;" x="241.124309" xlink:href="#m2ffa7efb16" y="212.137764"/>
     <use style="fill:#1f77b4;stroke:#1f77b4;" x="55.595597" xlink:href="#m2ffa7efb16" y="433.620554"/>
     <use style="fill:#1f77b4;stroke:#1f77b4;" x="395.354029" xlink:href="#m2ffa7efb16" y="275.817523"/>
     <use style="fill:#1f77b4;stroke:#1f77b4;" x="235.341237" xlink:href="#m2ffa7efb16" y="165.774208"/>
    </g>
   </g>
   <g id="matplotlib.axis_1">
    <g id="xtick_1">
     <g id="line2d_1">
      <defs>
       <path d="M 0 0 
L 0 3.5 
" id="m23e3887902" style="stroke:#000000;stroke-width:0.8;"/>
      </defs>
      <g>
       <use style="stroke:#000000;stroke-width:0.8;" x="78.862691" xlink:href="#m23e3887902" y="465.838125"/>
      </g>
     </g>
     <g id="text_1">
      <!-- −10 -->
      <g transform="translate(68.310348 480.436562)scale(0.1 -0.1)">
       <defs>
        <path d="M 678 2272 
L 4684 2272 
L 4684 1741 
L 678 1741 
L 678 2272 
z
" id="DejaVuSans-2212" transform="scale(0.015625)"/>
        <path d="M 794 531 
L 1825 531 
L 1825 4091 
L 703 3866 
L 703 4441 
L 1819 4666 
L 2450 4666 
L 2450 531 
L 3481 531 
L 3481 0 
L 794 0 
L 794 531 
z
" id="DejaVuSans-31" transform="scale(0.015625)"/>
        <path d="M 2034 4250 
Q 1547 4250 1301 3770 
Q 1056 3291 1056 2328 
Q 1056 1369 1301 889 
Q 1547 409 2034 409 
Q 2525 409 2770 889 
Q 3016 1369 3016 2328 
Q 3016 3291 2770 3770 
Q 2525 4250 2034 4250 
z
M 2034 4750 
Q 2819 4750 3233 4129 
Q 3647 3509 3647 2328 
Q 3647 1150 3233 529 
Q 2819 -91 2034 -91 
Q 1250 -91 836 529 
Q 422 1150 422 2328 
Q 422 3509 836 4129 
Q 1250 4750 2034 4750 
z
" id="DejaVuSans-30" transform="scale(0.015625)"/>
       </defs>
       <use xlink:href="#DejaVuSans-2212"/>
       <use x="83.789062" xlink:href="#DejaVuSans-31"/>
       <use x="147.412109" xlink:href="#DejaVuSans-30"/>
      </g>
     </g>
    </g>
    <g id="xtick_2">
     <g id="line2d_2">
      <g>
       <use style="stroke:#000000;stroke-width:0.8;" x="172.891719" xlink:href="#m23e3887902" y="465.838125"/>
      </g>
     </g>
     <g id="text_2">
      <!-- −5 -->
      <g transform="translate(165.520626 480.436562)scale(0.1 -0.1)">
       <defs>
        <path d="M 691 4666 
L 3169 4666 
L 3169 4134 
L 1269 4134 
L 1269 2991 
Q 1406 3038 1543 3061 
Q 1681 3084 1819 3084 
Q 2600 3084 3056 2656 
Q 3513 2228 3513 1497 
Q 3513 744 3044 326 
Q 2575 -91 1722 -91 
Q 1428 -91 1123 -41 
Q 819 9 494 109 
L 494 744 
Q 775 591 1075 516 
Q 1375 441 1709 441 
Q 2250 441 2565 725 
Q 2881 1009 2881 1497 
Q 2881 1984 2565 2268 
Q 2250 2553 1709 2553 
Q 1456 2553 1204 2497 
Q 953 2441 691 2322 
L 691 4666 
z
" id="DejaVuSans-35" transform="scale(0.015625)"/>
       </defs>
       <use xlink:href="#DejaVuSans-2212"/>
       <use x="83.789062" xlink:href="#DejaVuSans-35"/>
      </g>
     </g>
    </g>
    <g id="xtick_3">
     <g id="line2d_3">
      <g>
       <use style="stroke:#000000;stroke-width:0.8;" x="266.920747" xlink:href="#m23e3887902" y="465.838125"/>
      </g>
     </g>
     <g id="text_3">
      <!-- 0 -->
      <g transform="translate(263.739497 480.436562)scale(0.1 -0.1)">
       <use xlink:href="#DejaVuSans-30"/>
      </g>
     </g>
    </g>
    <g id="xtick_4">
     <g id="line2d_4">
      <g>
       <use style="stroke:#000000;stroke-width:0.8;" x="360.949776" xlink:href="#m23e3887902" y="465.838125"/>
      </g>
     </g>
     <g id="text_4">
      <!-- 5 -->
      <g transform="translate(357.768526 480.436562)scale(0.1 -0.1)">
       <use xlink:href="#DejaVuSans-35"/>
      </g>
     </g>
    </g>
    <g id="xtick_5">
     <g id="line2d_5">
      <g>
       <use style="stroke:#000000;stroke-width:0.8;" x="454.978804" xlink:href="#m23e3887902" y="465.838125"/>
      </g>
     </g>
     <g id="text_5">
      <!-- 10 -->
      <g transform="translate(448.616304 480.436562)scale(0.1 -0.1)">
       <use xlink:href="#DejaVuSans-31"/>
       <use x="63.623047" xlink:href="#DejaVuSans-30"/>
      </g>
     </g>
    </g>
   </g>
   <g id="matplotlib.axis_2">
    <g id="ytick_1">
     <g id="line2d_6">
      <defs>
       <path d="M 0 0 
L -3.5 0 
" id="m391e5dcb50" style="stroke:#000000;stroke-width:0.8;"/>
      </defs>
      <g>
       <use style="stroke:#000000;stroke-width:0.8;" x="35.304688" xlink:href="#m391e5dcb50" y="445.049031"/>
      </g>
     </g>
     <g id="text_6">
      <!-- −10 -->
      <g transform="translate(7.2 448.84825)scale(0.1 -0.1)">
       <use xlink:href="#DejaVuSans-2212"/>
       <use x="83.789062" xlink:href="#DejaVuSans-31"/>
       <use x="147.412109" xlink:href="#DejaVuSans-30"/>
      </g>
     </g>
    </g>
    <g id="ytick_2">
     <g id="line2d_7">
      <g>
       <use style="stroke:#000000;stroke-width:0.8;" x="35.304688" xlink:href="#m391e5dcb50" y="353.12435"/>
      </g>
     </g>
     <g id="text_7">
      <!-- −5 -->
      <g transform="translate(13.5625 356.923569)scale(0.1 -0.1)">
       <use xlink:href="#DejaVuSans-2212"/>
       <use x="83.789062" xlink:href="#DejaVuSans-35"/>
      </g>
     </g>
    </g>
    <g id="ytick_3">
     <g id="line2d_8">
      <g>
       <use style="stroke:#000000;stroke-width:0.8;" x="35.304688" xlink:href="#m391e5dcb50" y="261.199669"/>
      </g>
     </g>
     <g id="text_8">
      <!-- 0 -->
      <g transform="translate(21.942187 264.998888)scale(0.1 -0.1)">
       <use xlink:href="#DejaVuSans-30"/>
      </g>
     </g>
    </g>
    <g id="ytick_4">
     <g id="line2d_9">
      <g>
       <use style="stroke:#000000;stroke-width:0.8;" x="35.304688" xlink:href="#m391e5dcb50" y="169.274988"/>
      </g>
     </g>
     <g id="text_9">
      <!-- 5 -->
      <g transform="translate(21.942187 173.074207)scale(0.1 -0.1)">
       <use xlink:href="#DejaVuSans-35"/>
      </g>
     </g>
    </g>
    <g id="ytick_5">
     <g id="line2d_10">
      <g>
       <use style="stroke:#000000;stroke-width:0.8;" x="35.304688" xlink:href="#m391e5dcb50" y="77.350307"/>
      </g>
     </g>
     <g id="text_10">
      <!-- 10 -->
      <g transform="translate(15.579687 81.149526)scale(0.1 -0.1)">
       <use xlink:href="#DejaVuSans-31"/>
       <use x="63.623047" xlink:href="#DejaVuSans-30"/>
      </g>
     </g>
    </g>
   </g>
   <g id="patch_3">
    <path d="M 35.304688 465.838125 
L 35.304688 22.318125 
" style="fill:none;stroke:#000000;stroke-linecap:square;stroke-linejoin:miter;stroke-width:0.8;"/>
   </g>
   <g id="patch_4">
    <path d="M 481.704687 465.838125 
L 481.704687 22.318125 
" style="fill:none;stroke:#000000;stroke-linecap:square;stroke-linejoin:miter;stroke-width:0.8;"/>
   </g>
   <g id="patch_5">
    <path d="M 35.304687 465.838125 
L 481.704687 465.838125 
" style="fill:none;stroke:#000000;stroke-linecap:square;stroke-linejoin:miter;stroke-width:0.8;"/>
   </g>
   <g id="patch_6">
    <path d="M 35.304687 22.318125 
L 481.704687 22.318125 
" style="fill:none;stroke:#000000;stroke-linecap:square;stroke-linejoin:miter;stroke-width:0.8;"/>
   </g>
   <g id="text_11">
    <!-- Josh K -->
    <g transform="translate(377.253191 138.210815)scale(0.1 -0.1)">
     <defs>
      <path d="M 628 4666 
L 1259 4666 
L 1259 325 
Q 1259 -519 939 -900 
Q 619 -1281 -91 -1281 
L -331 -1281 
L -331 -750 
L -134 -750 
Q 284 -750 456 -515 
Q 628 -281 628 325 
L 628 4666 
z
" id="DejaVuSans-4a" transform="scale(0.015625)"/>
      <path d="M 1959 3097 
Q 1497 3097 1228 2736 
Q 959 2375 959 1747 
Q 959 1119 1226 758 
Q 1494 397 1959 397 
Q 2419 397 2687 759 
Q 2956 1122 2956 1747 
Q 2956 2369 2687 2733 
Q 2419 3097 1959 3097 
z
M 1959 3584 
Q 2709 3584 3137 3096 
Q 3566 2609 3566 1747 
Q 3566 888 3137 398 
Q 2709 -91 1959 -91 
Q 1206 -91 779 398 
Q 353 888 353 1747 
Q 353 2609 779 3096 
Q 1206 3584 1959 3584 
z
" id="DejaVuSans-6f" transform="scale(0.015625)"/>
      <path d="M 2834 3397 
L 2834 2853 
Q 2591 2978 2328 3040 
Q 2066 3103 1784 3103 
Q 1356 3103 1142 2972 
Q 928 2841 928 2578 
Q 928 2378 1081 2264 
Q 1234 2150 1697 2047 
L 1894 2003 
Q 2506 1872 2764 1633 
Q 3022 1394 3022 966 
Q 3022 478 2636 193 
Q 2250 -91 1575 -91 
Q 1294 -91 989 -36 
Q 684 19 347 128 
L 347 722 
Q 666 556 975 473 
Q 1284 391 1588 391 
Q 1994 391 2212 530 
Q 2431 669 2431 922 
Q 2431 1156 2273 1281 
Q 2116 1406 1581 1522 
L 1381 1569 
Q 847 1681 609 1914 
Q 372 2147 372 2553 
Q 372 3047 722 3315 
Q 1072 3584 1716 3584 
Q 2034 3584 2315 3537 
Q 2597 3491 2834 3397 
z
" id="DejaVuSans-73" transform="scale(0.015625)"/>
      <path d="M 3513 2113 
L 3513 0 
L 2938 0 
L 2938 2094 
Q 2938 2591 2744 2837 
Q 2550 3084 2163 3084 
Q 1697 3084 1428 2787 
Q 1159 2491 1159 1978 
L 1159 0 
L 581 0 
L 581 4863 
L 1159 4863 
L 1159 2956 
Q 1366 3272 1645 3428 
Q 1925 3584 2291 3584 
Q 2894 3584 3203 3211 
Q 3513 2838 3513 2113 
z
" id="DejaVuSans-68" transform="scale(0.015625)"/>
      <path id="DejaVuSans-20" transform="scale(0.015625)"/>
      <path d="M 628 4666 
L 1259 4666 
L 1259 2694 
L 3353 4666 
L 4166 4666 
L 1850 2491 
L 4331 0 
L 3500 0 
L 1259 2247 
L 1259 0 
L 628 0 
L 628 4666 
z
" id="DejaVuSans-4b" transform="scale(0.015625)"/>
     </defs>
     <use xlink:href="#DejaVuSans-4a"/>
     <use x="29.492188" xlink:href="#DejaVuSans-6f"/>
     <use x="90.673828" xlink:href="#DejaVuSans-73"/>
     <use x="142.773438" xlink:href="#DejaVuSans-68"/>
     <use x="206.152344" xlink:href="#DejaVuSans-20"/>
     <use x="237.939453" xlink:href="#DejaVuSans-4b"/>
    </g>
   </g>
   <g id="text_12">
    <!-- Thomas B -->
    <g transform="translate(83.401701 303.987918)scale(0.1 -0.1)">
     <defs>
      <path d="M -19 4666 
L 3928 4666 
L 3928 4134 
L 2272 4134 
L 2272 0 
L 1638 0 
L 1638 4134 
L -19 4134 
L -19 4666 
z
" id="DejaVuSans-54" transform="scale(0.015625)"/>
      <path d="M 3328 2828 
Q 3544 3216 3844 3400 
Q 4144 3584 4550 3584 
Q 5097 3584 5394 3201 
Q 5691 2819 5691 2113 
L 5691 0 
L 5113 0 
L 5113 2094 
Q 5113 2597 4934 2840 
Q 4756 3084 4391 3084 
Q 3944 3084 3684 2787 
Q 3425 2491 3425 1978 
L 3425 0 
L 2847 0 
L 2847 2094 
Q 2847 2600 2669 2842 
Q 2491 3084 2119 3084 
Q 1678 3084 1418 2786 
Q 1159 2488 1159 1978 
L 1159 0 
L 581 0 
L 581 3500 
L 1159 3500 
L 1159 2956 
Q 1356 3278 1631 3431 
Q 1906 3584 2284 3584 
Q 2666 3584 2933 3390 
Q 3200 3197 3328 2828 
z
" id="DejaVuSans-6d" transform="scale(0.015625)"/>
      <path d="M 2194 1759 
Q 1497 1759 1228 1600 
Q 959 1441 959 1056 
Q 959 750 1161 570 
Q 1363 391 1709 391 
Q 2188 391 2477 730 
Q 2766 1069 2766 1631 
L 2766 1759 
L 2194 1759 
z
M 3341 1997 
L 3341 0 
L 2766 0 
L 2766 531 
Q 2569 213 2275 61 
Q 1981 -91 1556 -91 
Q 1019 -91 701 211 
Q 384 513 384 1019 
Q 384 1609 779 1909 
Q 1175 2209 1959 2209 
L 2766 2209 
L 2766 2266 
Q 2766 2663 2505 2880 
Q 2244 3097 1772 3097 
Q 1472 3097 1187 3025 
Q 903 2953 641 2809 
L 641 3341 
Q 956 3463 1253 3523 
Q 1550 3584 1831 3584 
Q 2591 3584 2966 3190 
Q 3341 2797 3341 1997 
z
" id="DejaVuSans-61" transform="scale(0.015625)"/>
      <path d="M 1259 2228 
L 1259 519 
L 2272 519 
Q 2781 519 3026 730 
Q 3272 941 3272 1375 
Q 3272 1813 3026 2020 
Q 2781 2228 2272 2228 
L 1259 2228 
z
M 1259 4147 
L 1259 2741 
L 2194 2741 
Q 2656 2741 2882 2914 
Q 3109 3088 3109 3444 
Q 3109 3797 2882 3972 
Q 2656 4147 2194 4147 
L 1259 4147 
z
M 628 4666 
L 2241 4666 
Q 2963 4666 3353 4366 
Q 3744 4066 3744 3513 
Q 3744 3084 3544 2831 
Q 3344 2578 2956 2516 
Q 3422 2416 3680 2098 
Q 3938 1781 3938 1306 
Q 3938 681 3513 340 
Q 3088 0 2303 0 
L 628 0 
L 628 4666 
z
" id="DejaVuSans-42" transform="scale(0.015625)"/>
     </defs>
     <use xlink:href="#DejaVuSans-54"/>
     <use x="61.083984" xlink:href="#DejaVuSans-68"/>
     <use x="124.462891" xlink:href="#DejaVuSans-6f"/>
     <use x="185.644531" xlink:href="#DejaVuSans-6d"/>
     <use x="283.056641" xlink:href="#DejaVuSans-61"/>
     <use x="344.335938" xlink:href="#DejaVuSans-73"/>
     <use x="396.435547" xlink:href="#DejaVuSans-20"/>
     <use x="428.222656" xlink:href="#DejaVuSans-42"/>
    </g>
   </g>
   <g id="text_13">
    <!-- Rach G -->
    <g transform="translate(150.68747 129.260083)scale(0.1 -0.1)">
     <defs>
      <path d="M 2841 2188 
Q 3044 2119 3236 1894 
Q 3428 1669 3622 1275 
L 4263 0 
L 3584 0 
L 2988 1197 
Q 2756 1666 2539 1819 
Q 2322 1972 1947 1972 
L 1259 1972 
L 1259 0 
L 628 0 
L 628 4666 
L 2053 4666 
Q 2853 4666 3247 4331 
Q 3641 3997 3641 3322 
Q 3641 2881 3436 2590 
Q 3231 2300 2841 2188 
z
M 1259 4147 
L 1259 2491 
L 2053 2491 
Q 2509 2491 2742 2702 
Q 2975 2913 2975 3322 
Q 2975 3731 2742 3939 
Q 2509 4147 2053 4147 
L 1259 4147 
z
" id="DejaVuSans-52" transform="scale(0.015625)"/>
      <path d="M 3122 3366 
L 3122 2828 
Q 2878 2963 2633 3030 
Q 2388 3097 2138 3097 
Q 1578 3097 1268 2742 
Q 959 2388 959 1747 
Q 959 1106 1268 751 
Q 1578 397 2138 397 
Q 2388 397 2633 464 
Q 2878 531 3122 666 
L 3122 134 
Q 2881 22 2623 -34 
Q 2366 -91 2075 -91 
Q 1284 -91 818 406 
Q 353 903 353 1747 
Q 353 2603 823 3093 
Q 1294 3584 2113 3584 
Q 2378 3584 2631 3529 
Q 2884 3475 3122 3366 
z
" id="DejaVuSans-63" transform="scale(0.015625)"/>
      <path d="M 3809 666 
L 3809 1919 
L 2778 1919 
L 2778 2438 
L 4434 2438 
L 4434 434 
Q 4069 175 3628 42 
Q 3188 -91 2688 -91 
Q 1594 -91 976 548 
Q 359 1188 359 2328 
Q 359 3472 976 4111 
Q 1594 4750 2688 4750 
Q 3144 4750 3555 4637 
Q 3966 4525 4313 4306 
L 4313 3634 
Q 3963 3931 3569 4081 
Q 3175 4231 2741 4231 
Q 1884 4231 1454 3753 
Q 1025 3275 1025 2328 
Q 1025 1384 1454 906 
Q 1884 428 2741 428 
Q 3075 428 3337 486 
Q 3600 544 3809 666 
z
" id="DejaVuSans-47" transform="scale(0.015625)"/>
     </defs>
     <use xlink:href="#DejaVuSans-52"/>
     <use x="67.232422" xlink:href="#DejaVuSans-61"/>
     <use x="128.511719" xlink:href="#DejaVuSans-63"/>
     <use x="183.492188" xlink:href="#DejaVuSans-68"/>
     <use x="246.871094" xlink:href="#DejaVuSans-20"/>
     <use x="278.658203" xlink:href="#DejaVuSans-47"/>
    </g>
   </g>
   <g id="text_14">
    <!-- Matt W -->
    <g transform="translate(352.959368 317.849833)scale(0.1 -0.1)">
     <defs>
      <path d="M 628 4666 
L 1569 4666 
L 2759 1491 
L 3956 4666 
L 4897 4666 
L 4897 0 
L 4281 0 
L 4281 4097 
L 3078 897 
L 2444 897 
L 1241 4097 
L 1241 0 
L 628 0 
L 628 4666 
z
" id="DejaVuSans-4d" transform="scale(0.015625)"/>
      <path d="M 1172 4494 
L 1172 3500 
L 2356 3500 
L 2356 3053 
L 1172 3053 
L 1172 1153 
Q 1172 725 1289 603 
Q 1406 481 1766 481 
L 2356 481 
L 2356 0 
L 1766 0 
Q 1100 0 847 248 
Q 594 497 594 1153 
L 594 3053 
L 172 3053 
L 172 3500 
L 594 3500 
L 594 4494 
L 1172 4494 
z
" id="DejaVuSans-74" transform="scale(0.015625)"/>
      <path d="M 213 4666 
L 850 4666 
L 1831 722 
L 2809 4666 
L 3519 4666 
L 4500 722 
L 5478 4666 
L 6119 4666 
L 4947 0 
L 4153 0 
L 3169 4050 
L 2175 0 
L 1381 0 
L 213 4666 
z
" id="DejaVuSans-57" transform="scale(0.015625)"/>
     </defs>
     <use xlink:href="#DejaVuSans-4d"/>
     <use x="86.279297" xlink:href="#DejaVuSans-61"/>
     <use x="147.558594" xlink:href="#DejaVuSans-74"/>
     <use x="186.767578" xlink:href="#DejaVuSans-74"/>
     <use x="225.976562" xlink:href="#DejaVuSans-20"/>
     <use x="257.763672" xlink:href="#DejaVuSans-57"/>
    </g>
   </g>
   <g id="text_15">
    <!-- Dylan F -->
    <g transform="translate(271.512147 445.678125)scale(0.1 -0.1)">
     <defs>
      <path d="M 1259 4147 
L 1259 519 
L 2022 519 
Q 2988 519 3436 956 
Q 3884 1394 3884 2338 
Q 3884 3275 3436 3711 
Q 2988 4147 2022 4147 
L 1259 4147 
z
M 628 4666 
L 1925 4666 
Q 3281 4666 3915 4102 
Q 4550 3538 4550 2338 
Q 4550 1131 3912 565 
Q 3275 0 1925 0 
L 628 0 
L 628 4666 
z
" id="DejaVuSans-44" transform="scale(0.015625)"/>
      <path d="M 2059 -325 
Q 1816 -950 1584 -1140 
Q 1353 -1331 966 -1331 
L 506 -1331 
L 506 -850 
L 844 -850 
Q 1081 -850 1212 -737 
Q 1344 -625 1503 -206 
L 1606 56 
L 191 3500 
L 800 3500 
L 1894 763 
L 2988 3500 
L 3597 3500 
L 2059 -325 
z
" id="DejaVuSans-79" transform="scale(0.015625)"/>
      <path d="M 603 4863 
L 1178 4863 
L 1178 0 
L 603 0 
L 603 4863 
z
" id="DejaVuSans-6c" transform="scale(0.015625)"/>
      <path d="M 3513 2113 
L 3513 0 
L 2938 0 
L 2938 2094 
Q 2938 2591 2744 2837 
Q 2550 3084 2163 3084 
Q 1697 3084 1428 2787 
Q 1159 2491 1159 1978 
L 1159 0 
L 581 0 
L 581 3500 
L 1159 3500 
L 1159 2956 
Q 1366 3272 1645 3428 
Q 1925 3584 2291 3584 
Q 2894 3584 3203 3211 
Q 3513 2838 3513 2113 
z
" id="DejaVuSans-6e" transform="scale(0.015625)"/>
      <path d="M 628 4666 
L 3309 4666 
L 3309 4134 
L 1259 4134 
L 1259 2759 
L 3109 2759 
L 3109 2228 
L 1259 2228 
L 1259 0 
L 628 0 
L 628 4666 
z
" id="DejaVuSans-46" transform="scale(0.015625)"/>
     </defs>
     <use xlink:href="#DejaVuSans-44"/>
     <use x="77.001953" xlink:href="#DejaVuSans-79"/>
     <use x="136.181641" xlink:href="#DejaVuSans-6c"/>
     <use x="163.964844" xlink:href="#DejaVuSans-61"/>
     <use x="225.244141" xlink:href="#DejaVuSans-6e"/>
     <use x="288.623047" xlink:href="#DejaVuSans-20"/>
     <use x="320.410156" xlink:href="#DejaVuSans-46"/>
    </g>
   </g>
   <g id="text_16">
    <!-- Sean S -->
    <g transform="translate(302.811375 44.097214)scale(0.1 -0.1)">
     <defs>
      <path d="M 3425 4513 
L 3425 3897 
Q 3066 4069 2747 4153 
Q 2428 4238 2131 4238 
Q 1616 4238 1336 4038 
Q 1056 3838 1056 3469 
Q 1056 3159 1242 3001 
Q 1428 2844 1947 2747 
L 2328 2669 
Q 3034 2534 3370 2195 
Q 3706 1856 3706 1288 
Q 3706 609 3251 259 
Q 2797 -91 1919 -91 
Q 1588 -91 1214 -16 
Q 841 59 441 206 
L 441 856 
Q 825 641 1194 531 
Q 1563 422 1919 422 
Q 2459 422 2753 634 
Q 3047 847 3047 1241 
Q 3047 1584 2836 1778 
Q 2625 1972 2144 2069 
L 1759 2144 
Q 1053 2284 737 2584 
Q 422 2884 422 3419 
Q 422 4038 858 4394 
Q 1294 4750 2059 4750 
Q 2388 4750 2728 4690 
Q 3069 4631 3425 4513 
z
" id="DejaVuSans-53" transform="scale(0.015625)"/>
      <path d="M 3597 1894 
L 3597 1613 
L 953 1613 
Q 991 1019 1311 708 
Q 1631 397 2203 397 
Q 2534 397 2845 478 
Q 3156 559 3463 722 
L 3463 178 
Q 3153 47 2828 -22 
Q 2503 -91 2169 -91 
Q 1331 -91 842 396 
Q 353 884 353 1716 
Q 353 2575 817 3079 
Q 1281 3584 2069 3584 
Q 2775 3584 3186 3129 
Q 3597 2675 3597 1894 
z
M 3022 2063 
Q 3016 2534 2758 2815 
Q 2500 3097 2075 3097 
Q 1594 3097 1305 2825 
Q 1016 2553 972 2059 
L 3022 2063 
z
" id="DejaVuSans-65" transform="scale(0.015625)"/>
     </defs>
     <use xlink:href="#DejaVuSans-53"/>
     <use x="63.476562" xlink:href="#DejaVuSans-65"/>
     <use x="125" xlink:href="#DejaVuSans-61"/>
     <use x="186.279297" xlink:href="#DejaVuSans-6e"/>
     <use x="249.658203" xlink:href="#DejaVuSans-20"/>
     <use x="281.445312" xlink:href="#DejaVuSans-53"/>
    </g>
   </g>
   <g id="text_17">
    <!-- Henry W -->
    <g transform="translate(68.684423 231.670992)scale(0.1 -0.1)">
     <defs>
      <path d="M 628 4666 
L 1259 4666 
L 1259 2753 
L 3553 2753 
L 3553 4666 
L 4184 4666 
L 4184 0 
L 3553 0 
L 3553 2222 
L 1259 2222 
L 1259 0 
L 628 0 
L 628 4666 
z
" id="DejaVuSans-48" transform="scale(0.015625)"/>
      <path d="M 2631 2963 
Q 2534 3019 2420 3045 
Q 2306 3072 2169 3072 
Q 1681 3072 1420 2755 
Q 1159 2438 1159 1844 
L 1159 0 
L 581 0 
L 581 3500 
L 1159 3500 
L 1159 2956 
Q 1341 3275 1631 3429 
Q 1922 3584 2338 3584 
Q 2397 3584 2469 3576 
Q 2541 3569 2628 3553 
L 2631 2963 
z
" id="DejaVuSans-72" transform="scale(0.015625)"/>
     </defs>
     <use xlink:href="#DejaVuSans-48"/>
     <use x="75.195312" xlink:href="#DejaVuSans-65"/>
     <use x="136.71875" xlink:href="#DejaVuSans-6e"/>
     <use x="200.097656" xlink:href="#DejaVuSans-72"/>
     <use x="241.210938" xlink:href="#DejaVuSans-79"/>
     <use x="300.390625" xlink:href="#DejaVuSans-20"/>
     <use x="332.177734" xlink:href="#DejaVuSans-57"/>
    </g>
   </g>
   <g id="text_18">
    <!-- Vincent H -->
    <g transform="translate(197.417883 310.119853)scale(0.1 -0.1)">
     <defs>
      <path d="M 1831 0 
L 50 4666 
L 709 4666 
L 2188 738 
L 3669 4666 
L 4325 4666 
L 2547 0 
L 1831 0 
z
" id="DejaVuSans-56" transform="scale(0.015625)"/>
      <path d="M 603 3500 
L 1178 3500 
L 1178 0 
L 603 0 
L 603 3500 
z
M 603 4863 
L 1178 4863 
L 1178 4134 
L 603 4134 
L 603 4863 
z
" id="DejaVuSans-69" transform="scale(0.015625)"/>
     </defs>
     <use xlink:href="#DejaVuSans-56"/>
     <use x="66.158203" xlink:href="#DejaVuSans-69"/>
     <use x="93.941406" xlink:href="#DejaVuSans-6e"/>
     <use x="157.320312" xlink:href="#DejaVuSans-63"/>
     <use x="212.300781" xlink:href="#DejaVuSans-65"/>
     <use x="273.824219" xlink:href="#DejaVuSans-6e"/>
     <use x="337.203125" xlink:href="#DejaVuSans-74"/>
     <use x="376.412109" xlink:href="#DejaVuSans-20"/>
     <use x="408.199219" xlink:href="#DejaVuSans-48"/>
    </g>
   </g>
   <g id="text_19">
    <!-- Michael E -->
    <g transform="translate(339.179339 42.478125)scale(0.1 -0.1)">
     <defs>
      <path d="M 628 4666 
L 3578 4666 
L 3578 4134 
L 1259 4134 
L 1259 2753 
L 3481 2753 
L 3481 2222 
L 1259 2222 
L 1259 531 
L 3634 531 
L 3634 0 
L 628 0 
L 628 4666 
z
" id="DejaVuSans-45" transform="scale(0.015625)"/>
     </defs>
     <use xlink:href="#DejaVuSans-4d"/>
     <use x="86.279297" xlink:href="#DejaVuSans-69"/>
     <use x="114.0625" xlink:href="#DejaVuSans-63"/>
     <use x="169.042969" xlink:href="#DejaVuSans-68"/>
     <use x="232.421875" xlink:href="#DejaVuSans-61"/>
     <use x="293.701172" xlink:href="#DejaVuSans-65"/>
     <use x="355.224609" xlink:href="#DejaVuSans-6c"/>
     <use x="383.007812" xlink:href="#DejaVuSans-20"/>
     <use x="414.794922" xlink:href="#DejaVuSans-45"/>
    </g>
   </g>
   <g id="text_20">
    <!-- Will P. -->
    <g transform="translate(183.784338 378.986697)scale(0.1 -0.1)">
     <defs>
      <path d="M 1259 4147 
L 1259 2394 
L 2053 2394 
Q 2494 2394 2734 2622 
Q 2975 2850 2975 3272 
Q 2975 3691 2734 3919 
Q 2494 4147 2053 4147 
L 1259 4147 
z
M 628 4666 
L 2053 4666 
Q 2838 4666 3239 4311 
Q 3641 3956 3641 3272 
Q 3641 2581 3239 2228 
Q 2838 1875 2053 1875 
L 1259 1875 
L 1259 0 
L 628 0 
L 628 4666 
z
" id="DejaVuSans-50" transform="scale(0.015625)"/>
      <path d="M 684 794 
L 1344 794 
L 1344 0 
L 684 0 
L 684 794 
z
" id="DejaVuSans-2e" transform="scale(0.015625)"/>
     </defs>
     <use xlink:href="#DejaVuSans-57"/>
     <use x="96.626953" xlink:href="#DejaVuSans-69"/>
     <use x="124.410156" xlink:href="#DejaVuSans-6c"/>
     <use x="152.193359" xlink:href="#DejaVuSans-6c"/>
     <use x="179.976562" xlink:href="#DejaVuSans-20"/>
     <use x="211.763672" xlink:href="#DejaVuSans-50"/>
     <use x="256.441406" xlink:href="#DejaVuSans-2e"/>
    </g>
   </g>
   <g id="text_21">
    <!-- Michael T -->
    <g transform="translate(461.413778 92.031291)scale(0.1 -0.1)">
     <use xlink:href="#DejaVuSans-4d"/>
     <use x="86.279297" xlink:href="#DejaVuSans-69"/>
     <use x="114.0625" xlink:href="#DejaVuSans-63"/>
     <use x="169.042969" xlink:href="#DejaVuSans-68"/>
     <use x="232.421875" xlink:href="#DejaVuSans-61"/>
     <use x="293.701172" xlink:href="#DejaVuSans-65"/>
     <use x="355.224609" xlink:href="#DejaVuSans-6c"/>
     <use x="383.007812" xlink:href="#DejaVuSans-20"/>
     <use x="414.794922" xlink:href="#DejaVuSans-54"/>
    </g>
   </g>
   <g id="text_22">
    <!-- Kevin H -->
    <g transform="translate(366.670592 184.829485)scale(0.1 -0.1)">
     <defs>
      <path d="M 191 3500 
L 800 3500 
L 1894 563 
L 2988 3500 
L 3597 3500 
L 2284 0 
L 1503 0 
L 191 3500 
z
" id="DejaVuSans-76" transform="scale(0.015625)"/>
     </defs>
     <use xlink:href="#DejaVuSans-4b"/>
     <use x="60.576172" xlink:href="#DejaVuSans-65"/>
     <use x="122.099609" xlink:href="#DejaVuSans-76"/>
     <use x="181.279297" xlink:href="#DejaVuSans-69"/>
     <use x="209.0625" xlink:href="#DejaVuSans-6e"/>
     <use x="272.441406" xlink:href="#DejaVuSans-20"/>
     <use x="304.228516" xlink:href="#DejaVuSans-48"/>
    </g>
   </g>
   <g id="text_23">
    <!-- Jose A -->
    <g transform="translate(331.652119 411.724615)scale(0.1 -0.1)">
     <defs>
      <path d="M 2188 4044 
L 1331 1722 
L 3047 1722 
L 2188 4044 
z
M 1831 4666 
L 2547 4666 
L 4325 0 
L 3669 0 
L 3244 1197 
L 1141 1197 
L 716 0 
L 50 0 
L 1831 4666 
z
" id="DejaVuSans-41" transform="scale(0.015625)"/>
     </defs>
     <use xlink:href="#DejaVuSans-4a"/>
     <use x="29.492188" xlink:href="#DejaVuSans-6f"/>
     <use x="90.673828" xlink:href="#DejaVuSans-73"/>
     <use x="142.773438" xlink:href="#DejaVuSans-65"/>
     <use x="204.296875" xlink:href="#DejaVuSans-20"/>
     <use x="236.083984" xlink:href="#DejaVuSans-41"/>
    </g>
   </g>
   <g id="text_24">
    <!-- Josh B -->
    <g transform="translate(198.855598 126.107541)scale(0.1 -0.1)">
     <use xlink:href="#DejaVuSans-4a"/>
     <use x="29.492188" xlink:href="#DejaVuSans-6f"/>
     <use x="90.673828" xlink:href="#DejaVuSans-73"/>
     <use x="142.773438" xlink:href="#DejaVuSans-68"/>
     <use x="206.152344" xlink:href="#DejaVuSans-20"/>
     <use x="237.939453" xlink:href="#DejaVuSans-42"/>
    </g>
   </g>
   <g id="text_25">
    <!-- Brenden R -->
    <g transform="translate(157.968846 224.484018)scale(0.1 -0.1)">
     <defs>
      <path d="M 2906 2969 
L 2906 4863 
L 3481 4863 
L 3481 0 
L 2906 0 
L 2906 525 
Q 2725 213 2448 61 
Q 2172 -91 1784 -91 
Q 1150 -91 751 415 
Q 353 922 353 1747 
Q 353 2572 751 3078 
Q 1150 3584 1784 3584 
Q 2172 3584 2448 3432 
Q 2725 3281 2906 2969 
z
M 947 1747 
Q 947 1113 1208 752 
Q 1469 391 1925 391 
Q 2381 391 2643 752 
Q 2906 1113 2906 1747 
Q 2906 2381 2643 2742 
Q 2381 3103 1925 3103 
Q 1469 3103 1208 2742 
Q 947 2381 947 1747 
z
" id="DejaVuSans-64" transform="scale(0.015625)"/>
     </defs>
     <use xlink:href="#DejaVuSans-42"/>
     <use x="68.603516" xlink:href="#DejaVuSans-72"/>
     <use x="107.466797" xlink:href="#DejaVuSans-65"/>
     <use x="168.990234" xlink:href="#DejaVuSans-6e"/>
     <use x="232.369141" xlink:href="#DejaVuSans-64"/>
     <use x="295.845703" xlink:href="#DejaVuSans-65"/>
     <use x="357.369141" xlink:href="#DejaVuSans-6e"/>
     <use x="420.748047" xlink:href="#DejaVuSans-20"/>
     <use x="452.535156" xlink:href="#DejaVuSans-52"/>
    </g>
   </g>
   <g id="text_26">
    <!-- Will O -->
    <g transform="translate(314.794561 203.748118)scale(0.1 -0.1)">
     <defs>
      <path d="M 2522 4238 
Q 1834 4238 1429 3725 
Q 1025 3213 1025 2328 
Q 1025 1447 1429 934 
Q 1834 422 2522 422 
Q 3209 422 3611 934 
Q 4013 1447 4013 2328 
Q 4013 3213 3611 3725 
Q 3209 4238 2522 4238 
z
M 2522 4750 
Q 3503 4750 4090 4092 
Q 4678 3434 4678 2328 
Q 4678 1225 4090 567 
Q 3503 -91 2522 -91 
Q 1538 -91 948 565 
Q 359 1222 359 2328 
Q 359 3434 948 4092 
Q 1538 4750 2522 4750 
z
" id="DejaVuSans-4f" transform="scale(0.015625)"/>
     </defs>
     <use xlink:href="#DejaVuSans-57"/>
     <use x="96.626953" xlink:href="#DejaVuSans-69"/>
     <use x="124.410156" xlink:href="#DejaVuSans-6c"/>
     <use x="152.193359" xlink:href="#DejaVuSans-6c"/>
     <use x="179.976562" xlink:href="#DejaVuSans-20"/>
     <use x="211.763672" xlink:href="#DejaVuSans-4f"/>
    </g>
   </g>
   <g id="text_27">
    <!-- Jeremy M -->
    <g transform="translate(320.993706 370.193563)scale(0.1 -0.1)">
     <use xlink:href="#DejaVuSans-4a"/>
     <use x="29.492188" xlink:href="#DejaVuSans-65"/>
     <use x="91.015625" xlink:href="#DejaVuSans-72"/>
     <use x="129.878906" xlink:href="#DejaVuSans-65"/>
     <use x="191.402344" xlink:href="#DejaVuSans-6d"/>
     <use x="288.814453" xlink:href="#DejaVuSans-79"/>
     <use x="347.994141" xlink:href="#DejaVuSans-20"/>
     <use x="379.78125" xlink:href="#DejaVuSans-4d"/>
    </g>
   </g>
   <g id="text_28">
    <!-- Rich B -->
    <g transform="translate(372.062411 372.17013)scale(0.1 -0.1)">
     <use xlink:href="#DejaVuSans-52"/>
     <use x="69.482422" xlink:href="#DejaVuSans-69"/>
     <use x="97.265625" xlink:href="#DejaVuSans-63"/>
     <use x="152.246094" xlink:href="#DejaVuSans-68"/>
     <use x="215.625" xlink:href="#DejaVuSans-20"/>
     <use x="247.412109" xlink:href="#DejaVuSans-42"/>
    </g>
   </g>
   <g id="text_29">
    <!-- Arthur A -->
    <g transform="translate(385.380675 422.861217)scale(0.1 -0.1)">
     <defs>
      <path d="M 544 1381 
L 544 3500 
L 1119 3500 
L 1119 1403 
Q 1119 906 1312 657 
Q 1506 409 1894 409 
Q 2359 409 2629 706 
Q 2900 1003 2900 1516 
L 2900 3500 
L 3475 3500 
L 3475 0 
L 2900 0 
L 2900 538 
Q 2691 219 2414 64 
Q 2138 -91 1772 -91 
Q 1169 -91 856 284 
Q 544 659 544 1381 
z
M 1991 3584 
L 1991 3584 
z
" id="DejaVuSans-75" transform="scale(0.015625)"/>
     </defs>
     <use xlink:href="#DejaVuSans-41"/>
     <use x="68.408203" xlink:href="#DejaVuSans-72"/>
     <use x="109.521484" xlink:href="#DejaVuSans-74"/>
     <use x="148.730469" xlink:href="#DejaVuSans-68"/>
     <use x="212.109375" xlink:href="#DejaVuSans-75"/>
     <use x="275.488281" xlink:href="#DejaVuSans-72"/>
     <use x="316.601562" xlink:href="#DejaVuSans-20"/>
     <use x="348.388672" xlink:href="#DejaVuSans-41"/>
    </g>
   </g>
   <g id="text_30">
    <!-- Michael L -->
    <g transform="translate(241.199244 430.952373)scale(0.1 -0.1)">
     <defs>
      <path d="M 628 4666 
L 1259 4666 
L 1259 531 
L 3531 531 
L 3531 0 
L 628 0 
L 628 4666 
z
" id="DejaVuSans-4c" transform="scale(0.015625)"/>
     </defs>
     <use xlink:href="#DejaVuSans-4d"/>
     <use x="86.279297" xlink:href="#DejaVuSans-69"/>
     <use x="114.0625" xlink:href="#DejaVuSans-63"/>
     <use x="169.042969" xlink:href="#DejaVuSans-68"/>
     <use x="232.421875" xlink:href="#DejaVuSans-61"/>
     <use x="293.701172" xlink:href="#DejaVuSans-65"/>
     <use x="355.224609" xlink:href="#DejaVuSans-6c"/>
     <use x="383.007812" xlink:href="#DejaVuSans-20"/>
     <use x="414.794922" xlink:href="#DejaVuSans-4c"/>
    </g>
   </g>
   <g id="text_31">
    <!-- David K -->
    <g transform="translate(241.124309 212.137764)scale(0.1 -0.1)">
     <use xlink:href="#DejaVuSans-44"/>
     <use x="77.001953" xlink:href="#DejaVuSans-61"/>
     <use x="138.28125" xlink:href="#DejaVuSans-76"/>
     <use x="197.460938" xlink:href="#DejaVuSans-69"/>
     <use x="225.244141" xlink:href="#DejaVuSans-64"/>
     <use x="288.720703" xlink:href="#DejaVuSans-20"/>
     <use x="320.507812" xlink:href="#DejaVuSans-4b"/>
    </g>
   </g>
   <g id="text_32">
    <!-- Nikolai L -->
    <g transform="translate(55.595597 433.620554)scale(0.1 -0.1)">
     <defs>
      <path d="M 628 4666 
L 1478 4666 
L 3547 763 
L 3547 4666 
L 4159 4666 
L 4159 0 
L 3309 0 
L 1241 3903 
L 1241 0 
L 628 0 
L 628 4666 
z
" id="DejaVuSans-4e" transform="scale(0.015625)"/>
      <path d="M 581 4863 
L 1159 4863 
L 1159 1991 
L 2875 3500 
L 3609 3500 
L 1753 1863 
L 3688 0 
L 2938 0 
L 1159 1709 
L 1159 0 
L 581 0 
L 581 4863 
z
" id="DejaVuSans-6b" transform="scale(0.015625)"/>
     </defs>
     <use xlink:href="#DejaVuSans-4e"/>
     <use x="74.804688" xlink:href="#DejaVuSans-69"/>
     <use x="102.587891" xlink:href="#DejaVuSans-6b"/>
     <use x="156.873047" xlink:href="#DejaVuSans-6f"/>
     <use x="218.054688" xlink:href="#DejaVuSans-6c"/>
     <use x="245.837891" xlink:href="#DejaVuSans-61"/>
     <use x="307.117188" xlink:href="#DejaVuSans-69"/>
     <use x="334.900391" xlink:href="#DejaVuSans-20"/>
     <use x="366.6875" xlink:href="#DejaVuSans-4c"/>
    </g>
   </g>
   <g id="text_33">
    <!-- Matt Q -->
    <g transform="translate(395.354029 275.817523)scale(0.1 -0.1)">
     <defs>
      <path d="M 2522 4238 
Q 1834 4238 1429 3725 
Q 1025 3213 1025 2328 
Q 1025 1447 1429 934 
Q 1834 422 2522 422 
Q 3209 422 3611 934 
Q 4013 1447 4013 2328 
Q 4013 3213 3611 3725 
Q 3209 4238 2522 4238 
z
M 3406 84 
L 4238 -825 
L 3475 -825 
L 2784 -78 
Q 2681 -84 2626 -87 
Q 2572 -91 2522 -91 
Q 1538 -91 948 567 
Q 359 1225 359 2328 
Q 359 3434 948 4092 
Q 1538 4750 2522 4750 
Q 3503 4750 4090 4092 
Q 4678 3434 4678 2328 
Q 4678 1516 4351 937 
Q 4025 359 3406 84 
z
" id="DejaVuSans-51" transform="scale(0.015625)"/>
     </defs>
     <use xlink:href="#DejaVuSans-4d"/>
     <use x="86.279297" xlink:href="#DejaVuSans-61"/>
     <use x="147.558594" xlink:href="#DejaVuSans-74"/>
     <use x="186.767578" xlink:href="#DejaVuSans-74"/>
     <use x="225.976562" xlink:href="#DejaVuSans-20"/>
     <use x="257.763672" xlink:href="#DejaVuSans-51"/>
    </g>
   </g>
   <g id="text_34">
    <!-- Matt P -->
    <g transform="translate(235.341237 165.774208)scale(0.1 -0.1)">
     <use xlink:href="#DejaVuSans-4d"/>
     <use x="86.279297" xlink:href="#DejaVuSans-61"/>
     <use x="147.558594" xlink:href="#DejaVuSans-74"/>
     <use x="186.767578" xlink:href="#DejaVuSans-74"/>
     <use x="225.976562" xlink:href="#DejaVuSans-20"/>
     <use x="257.763672" xlink:href="#DejaVuSans-50"/>
    </g>
   </g>
   <g id="text_35">
    <!-- MDS Projected Kendall-Tau Distances -->
    <g transform="translate(148.070938 16.318125)scale(0.12 -0.12)">
     <defs>
      <path d="M 603 3500 
L 1178 3500 
L 1178 -63 
Q 1178 -731 923 -1031 
Q 669 -1331 103 -1331 
L -116 -1331 
L -116 -844 
L 38 -844 
Q 366 -844 484 -692 
Q 603 -541 603 -63 
L 603 3500 
z
M 603 4863 
L 1178 4863 
L 1178 4134 
L 603 4134 
L 603 4863 
z
" id="DejaVuSans-6a" transform="scale(0.015625)"/>
      <path d="M 313 2009 
L 1997 2009 
L 1997 1497 
L 313 1497 
L 313 2009 
z
" id="DejaVuSans-2d" transform="scale(0.015625)"/>
     </defs>
     <use xlink:href="#DejaVuSans-4d"/>
     <use x="86.279297" xlink:href="#DejaVuSans-44"/>
     <use x="163.28125" xlink:href="#DejaVuSans-53"/>
     <use x="226.757812" xlink:href="#DejaVuSans-20"/>
     <use x="258.544922" xlink:href="#DejaVuSans-50"/>
     <use x="317.097656" xlink:href="#DejaVuSans-72"/>
     <use x="355.960938" xlink:href="#DejaVuSans-6f"/>
     <use x="417.142578" xlink:href="#DejaVuSans-6a"/>
     <use x="444.925781" xlink:href="#DejaVuSans-65"/>
     <use x="506.449219" xlink:href="#DejaVuSans-63"/>
     <use x="561.429688" xlink:href="#DejaVuSans-74"/>
     <use x="600.638672" xlink:href="#DejaVuSans-65"/>
     <use x="662.162109" xlink:href="#DejaVuSans-64"/>
     <use x="725.638672" xlink:href="#DejaVuSans-20"/>
     <use x="757.425781" xlink:href="#DejaVuSans-4b"/>
     <use x="818.001953" xlink:href="#DejaVuSans-65"/>
     <use x="879.525391" xlink:href="#DejaVuSans-6e"/>
     <use x="942.904297" xlink:href="#DejaVuSans-64"/>
     <use x="1006.380859" xlink:href="#DejaVuSans-61"/>
     <use x="1067.660156" xlink:href="#DejaVuSans-6c"/>
     <use x="1095.443359" xlink:href="#DejaVuSans-6c"/>
     <use x="1123.226562" xlink:href="#DejaVuSans-2d"/>
     <use x="1150.185547" xlink:href="#DejaVuSans-54"/>
     <use x="1194.769531" xlink:href="#DejaVuSans-61"/>
     <use x="1256.048828" xlink:href="#DejaVuSans-75"/>
     <use x="1319.427734" xlink:href="#DejaVuSans-20"/>
     <use x="1351.214844" xlink:href="#DejaVuSans-44"/>
     <use x="1428.216797" xlink:href="#DejaVuSans-69"/>
     <use x="1456" xlink:href="#DejaVuSans-73"/>
     <use x="1508.099609" xlink:href="#DejaVuSans-74"/>
     <use x="1547.308594" xlink:href="#DejaVuSans-61"/>
     <use x="1608.587891" xlink:href="#DejaVuSans-6e"/>
     <use x="1671.966797" xlink:href="#DejaVuSans-63"/>
     <use x="1726.947266" xlink:href="#DejaVuSans-65"/>
     <use x="1788.470703" xlink:href="#DejaVuSans-73"/>
    </g>
   </g>
  </g>
 </g>
 <defs>
  <clipPath id="p3be9faf75b">
   <rect height="443.52" width="446.4" x="35.304688" y="22.318125"/>
  </clipPath>
 </defs>
</svg>
