<?xml version="1.0" encoding="UTF-8" standalone="no"?>
<svg
   xmlns:dc="http://purl.org/dc/elements/1.1/"
   xmlns:cc="http://creativecommons.org/ns#"
   xmlns:rdf="http://www.w3.org/1999/02/22-rdf-syntax-ns#"
   xmlns:svg="http://www.w3.org/2000/svg"
   xmlns="http://www.w3.org/2000/svg"
   xmlns:xlink="http://www.w3.org/1999/xlink"
   xmlns:sodipodi="http://sodipodi.sourceforge.net/DTD/sodipodi-0.dtd"
   xmlns:inkscape="http://www.inkscape.org/namespaces/inkscape"
   height="288pt"
   version="1.1"
   viewBox="0 0 432 288"
   width="432pt"
   id="svg474"
   sodipodi:docname="1.svg"
   inkscape:version="0.92.5 (2060ec1f9f, 2020-04-08)">
  <sodipodi:namedview
     pagecolor="#ffffff"
     bordercolor="#666666"
     borderopacity="1"
     objecttolerance="10"
     gridtolerance="10"
     guidetolerance="10"
     inkscape:pageopacity="0"
     inkscape:pageshadow="2"
     inkscape:window-width="1599"
     inkscape:window-height="862"
     id="namedview476"
     showgrid="false"
     inkscape:zoom="1.2291667"
     inkscape:cx="346.5957"
     inkscape:cy="171.02798"
     inkscape:window-x="2137"
     inkscape:window-y="163"
     inkscape:window-maximized="0"
     inkscape:current-layer="axes_1" />
  <metadata
     id="metadata2">
    <rdf:RDF>
      <cc:Work>
        <dc:type
           rdf:resource="http://purl.org/dc/dcmitype/StillImage" />
        <dc:date>2022-04-13T08:30:48.786396</dc:date>
        <dc:format>image/svg+xml</dc:format>
        <dc:creator>
          <cc:Agent>
            <dc:title>Matplotlib v3.4.3, https://matplotlib.org/</dc:title>
          </cc:Agent>
        </dc:creator>
      </cc:Work>
    </rdf:RDF>
  </metadata>
  <defs
     id="defs6">
    <style
       type="text/css"
       id="style4">*{stroke-linecap:butt;stroke-linejoin:round;}</style>
  </defs>
  <g
     id="figure_1">
    <g
       id="axes_1">
      <g
         id="patch_2">
        <path
           d="M 54 252  L 388.8 252  L 388.8 34.56  L 54 34.56  z "
           style="fill:#ffffff;"
           id="path11" />
      </g>
      <g
         id="PathCollection_1">
        <defs
           id="defs15">
          <path
             d="M 0 3.535534  C 0.937635 3.535534 1.836992 3.163008 2.5 2.5  C 3.163008 1.836992 3.535534 0.937635 3.535534 0  C 3.535534 -0.937635 3.163008 -1.836992 2.5 -2.5  C 1.836992 -3.163008 0.937635 -3.535534 0 -3.535534  C -0.937635 -3.535534 -1.836992 -3.163008 -2.5 -2.5  C -3.163008 -1.836992 -3.535534 -0.937635 -3.535534 0  C -3.535534 0.937635 -3.163008 1.836992 -2.5 2.5  C -1.836992 3.163008 -0.937635 3.535534 0 3.535534  z "
             id="m74b8cb7e22"
             style="stroke:#000000;" />
        </defs>
        <g
           clip-path="url(#p688fe006f5)"
           id="g19">
          <use
             style="stroke:#000000;"
             x="170.672727"
             xlink:href="#m74b8cb7e22"
             y="44.443636"
             id="use17" />
        </g>
      </g>
      <g
         id="PathCollection_2">
        <g
           clip-path="url(#p688fe006f5)"
           id="g24">
          <use
             style="stroke:#000000;"
             x="103.036364"
             xlink:href="#m74b8cb7e22"
             y="110.334545"
             id="use22" />
        </g>
      </g>
      <g
         id="PathCollection_3">
        <g
           clip-path="url(#p688fe006f5)"
           id="g29">
          <use
             style="stroke:#000000;"
             x="69.218182"
             xlink:href="#m74b8cb7e22"
             y="176.225455"
             id="use27" />
        </g>
      </g>
      <g
         id="PathCollection_4">
        <g
           clip-path="url(#p688fe006f5)"
           id="g34">
          <use
             style="stroke:#000000;"
             x="136.854545"
             xlink:href="#m74b8cb7e22"
             y="176.225455"
             id="use32" />
        </g>
      </g>
      <g
         id="PathCollection_5">
        <g
           clip-path="url(#p688fe006f5)"
           id="g39">
          <use
             style="stroke:#000000;"
             x="305.945455"
             xlink:href="#m74b8cb7e22"
             y="110.334545"
             id="use37" />
        </g>
      </g>
      <g
         id="PathCollection_6">
        <g
           clip-path="url(#p688fe006f5)"
           id="g44">
          <use
             style="stroke:#000000;"
             x="238.309091"
             xlink:href="#m74b8cb7e22"
             y="176.225455"
             id="use42" />
        </g>
      </g>
      <g
         id="PathCollection_7">
        <g
           clip-path="url(#p688fe006f5)"
           id="g49">
          <use
             style="stroke:#000000;"
             x="204.490909"
             xlink:href="#m74b8cb7e22"
             y="242.116364"
             id="use47" />
        </g>
      </g>
      <g
         id="PathCollection_8">
        <g
           clip-path="url(#p688fe006f5)"
           id="g54">
          <use
             style="stroke:#000000;"
             x="272.127273"
             xlink:href="#m74b8cb7e22"
             y="242.116364"
             id="use52" />
        </g>
      </g>
      <g
         id="PathCollection_9">
        <g
           clip-path="url(#p688fe006f5)"
           id="g59">
          <use
             style="stroke:#000000;"
             x="373.581818"
             xlink:href="#m74b8cb7e22"
             y="176.225455"
             id="use57" />
        </g>
      </g>
      <g
         id="PathCollection_10">
        <g
           clip-path="url(#p688fe006f5)"
           id="g64">
          <use
             style="stroke:#000000;"
             x="339.763636"
             xlink:href="#m74b8cb7e22"
             y="242.116364"
             id="use62" />
        </g>
      </g>
      <g
         id="line2d_13">
        <path
           clip-path="url(#p688fe006f5)"
           d="M 170.672727 44.443636  L 103.036364 110.334545  "
           style="fill:none;stroke:#1f77b4;stroke-linecap:square;stroke-width:1.5;"
           id="path273" />
      </g>
      <g
         id="line2d_14">
        <path
           clip-path="url(#p688fe006f5)"
           d="M 103.036364 110.334545  L 69.218182 176.225455  "
           style="fill:none;stroke:#ff7f0e;stroke-linecap:square;stroke-width:1.5;"
           id="path276" />
      </g>
      <g
         id="line2d_15">
        <path
           clip-path="url(#p688fe006f5)"
           d="M 103.036364 110.334545  L 136.854545 176.225455  "
           style="fill:none;stroke:#2ca02c;stroke-linecap:square;stroke-width:1.5;"
           id="path279" />
      </g>
      <g
         id="line2d_16">
        <path
           clip-path="url(#p688fe006f5)"
           d="M 170.672727 44.443636  L 305.945455 110.334545  "
           style="fill:none;stroke:#d62728;stroke-linecap:square;stroke-width:1.5;"
           id="path282" />
      </g>
      <g
         id="line2d_17">
        <path
           clip-path="url(#p688fe006f5)"
           d="M 305.945455 110.334545  L 238.309091 176.225455  "
           style="fill:none;stroke:#9467bd;stroke-linecap:square;stroke-width:1.5;"
           id="path285" />
      </g>
      <g
         id="line2d_18">
        <path
           clip-path="url(#p688fe006f5)"
           d="M 238.309091 176.225455  L 204.490909 242.116364  "
           style="fill:none;stroke:#8c564b;stroke-linecap:square;stroke-width:1.5;"
           id="path288" />
      </g>
      <g
         id="line2d_19">
        <path
           clip-path="url(#p688fe006f5)"
           d="M 238.309091 176.225455  L 272.127273 242.116364  "
           style="fill:none;stroke:#e377c2;stroke-linecap:square;stroke-width:1.5;"
           id="path291" />
      </g>
      <g
         id="line2d_20">
        <path
           clip-path="url(#p688fe006f5)"
           d="M 305.945455 110.334545  L 373.581818 176.225455  "
           style="fill:none;stroke:#7f7f7f;stroke-linecap:square;stroke-width:1.5;"
           id="path294" />
      </g>
      <g
         id="line2d_21">
        <path
           clip-path="url(#p688fe006f5)"
           d="M 373.581818 176.225455  L 339.763636 242.116364  "
           style="fill:none;stroke:#bcbd22;stroke-linecap:square;stroke-width:1.5;"
           id="path297" />
      </g>
      <g
         id="text_13">
        <!-- 10 (3) -->
        <g
           transform="translate(177.436364 44.443636)scale(0.1 -0.1)"
           id="g329">
          <defs
             id="defs315">
            <path
               id="DejaVuSans-20"
               transform="scale(0.015625)" />
            <path
               d="M 1984 4856  Q 1566 4138 1362 3434  Q 1159 2731 1159 2009  Q 1159 1288 1364 580  Q 1569 -128 1984 -844  L 1484 -844  Q 1016 -109 783 600  Q 550 1309 550 2009  Q 550 2706 781 3412  Q 1013 4119 1484 4856  L 1984 4856  z "
               id="DejaVuSans-28"
               transform="scale(0.015625)" />
            <path
               d="M 513 4856  L 1013 4856  Q 1481 4119 1714 3412  Q 1947 2706 1947 2009  Q 1947 1309 1714 600  Q 1481 -109 1013 -844  L 513 -844  Q 928 -128 1133 580  Q 1338 1288 1338 2009  Q 1338 2731 1133 3434  Q 928 4138 513 4856  z "
               id="DejaVuSans-29"
               transform="scale(0.015625)" />
          </defs>
          <path
             id="use317"
             d="m 12.40625,8.296875 h 16.109375 v 55.625 L 10.984375,60.40625 v 8.984375 l 17.4375,3.515625 H 38.28125 V 8.296875 H 54.390625 V 0 H 12.40625 Z"
             inkscape:connector-curvature="0"
             style="stroke-width:0.015625;stroke-linecap:butt;stroke-linejoin:round" />
          <path
             id="use319"
             d="m 95.404297,66.40625 q -7.609375,0 -11.453125,-7.5 -3.828125,-7.484375 -3.828125,-22.53125 0,-14.984375 3.828125,-22.484375 3.84375,-7.5 11.453125,-7.5 7.671873,0 11.500003,7.5 3.84375,7.5 3.84375,22.484375 0,15.046875 -3.84375,22.53125 -3.82813,7.5 -11.500003,7.5 z m 0,7.8125 q 12.265623,0 18.734373,-9.703125 6.46875,-9.6875 6.46875,-28.140625 0,-18.40625 -6.46875,-28.109375 -6.46875,-9.6875 -18.734373,-9.6875 -12.25,0 -18.71875,9.6875 -6.46875,9.703125 -6.46875,28.109375 0,18.453125 6.46875,28.140625 6.46875,9.703125 18.71875,9.703125 z"
             inkscape:connector-curvature="0"
             style="stroke-width:0.015625;stroke-linecap:butt;stroke-linejoin:round" />
          <use
             x="127.246094"
             xlink:href="#DejaVuSans-20"
             id="use321" />
          <use
             x="159.033203"
             xlink:href="#DejaVuSans-28"
             id="use323" />
          <path
             id="use325"
             d="m 238.625,39.3125 q 7.07812,-1.515625 11.04687,-6.3125 3.98438,-4.78125 3.98438,-11.8125 0,-10.78125 -7.42188,-16.703125 -7.42187,-5.90625 -21.09375,-5.90625 -4.57812,0 -9.4375,0.90625 -4.85937,0.90625 -10.03125,2.71875 v 9.515625 q 4.09375,-2.390625 8.96875,-3.609375 4.89063,-1.21875 10.21875,-1.21875 9.26563,0 14.125,3.65625 4.85938,3.65625 4.85938,10.640625 0,6.453125 -4.51563,10.078125 -4.51562,3.640625 -12.5625,3.640625 h -8.5 v 8.109375 h 8.89063 q 7.26562,0 11.125,2.90625 3.85937,2.90625 3.85937,8.375 0,5.609375 -3.98437,8.609375 -3.96875,3.015625 -11.39063,3.015625 -4.0625,0 -8.70312,-0.890625 -4.64063,-0.875 -10.20313,-2.71875 v 8.78125 q 5.625,1.5625 10.53125,2.34375 4.90625,0.78125 9.25,0.78125 11.23438,0 17.76563,-5.109375 6.54687,-5.09375 6.54687,-13.78125 0,-6.0625 -3.46875,-10.234375 -3.46875,-4.171875 -9.85937,-5.78125 z"
             inkscape:connector-curvature="0"
             style="stroke-width:0.015625;stroke-linecap:butt;stroke-linejoin:round" />
          <use
             x="261.669922"
             xlink:href="#DejaVuSans-29"
             id="use327" />
        </g>
      </g>
      <g
         id="text_14">
        <!-- 7 (1) -->
        <g
           transform="translate(109.8 110.334545)scale(0.1 -0.1)"
           id="g345">
          <defs
             id="defs333">
            <path
               d="M 525 4666  L 3525 4666  L 3525 4397  L 1831 0  L 1172 0  L 2766 4134  L 525 4134  L 525 4666  z "
               id="DejaVuSans-37"
               transform="scale(0.015625)" />
          </defs>
          <use
             xlink:href="#DejaVuSans-37"
             id="use335" />
          <use
             x="63.623047"
             xlink:href="#DejaVuSans-20"
             id="use337" />
          <use
             x="95.410156"
             xlink:href="#DejaVuSans-28"
             id="use339" />
          <path
             id="use341"
             d="m 146.83008,8.296875 h 16.10937 v 55.625 L 145.4082,60.40625 v 8.984375 l 17.4375,3.515625 h 9.85938 V 8.296875 h 16.10937 V 0 h -41.98437 z"
             inkscape:connector-curvature="0"
             style="stroke-width:0.015625;stroke-linecap:butt;stroke-linejoin:round" />
          <use
             x="198.046875"
             xlink:href="#DejaVuSans-29"
             id="use343" />
        </g>
      </g>
      <g
         id="text_15">
        <!-- 3 (0) -->
        <g
           transform="translate(75.981818 176.225455)scale(0.1 -0.1)"
           id="g358">
          <path
             id="use348"
             d="M 40.578125,39.3125 Q 47.65625,37.796875 51.625,33 q 3.984375,-4.78125 3.984375,-11.8125 0,-10.78125 -7.421875,-16.703125 -7.421875,-5.90625 -21.09375,-5.90625 -4.578125,0 -9.4375,0.90625 -4.859375,0.90625 -10.03125,2.71875 v 9.515625 q 4.09375,-2.390625 8.96875,-3.609375 4.890625,-1.21875 10.21875,-1.21875 9.265625,0 14.125,3.65625 4.859375,3.65625 4.859375,10.640625 0,6.453125 -4.515625,10.078125 -4.515625,3.640625 -12.5625,3.640625 h -8.5 v 8.109375 h 8.890625 q 7.265625,0 11.125,2.90625 3.859375,2.90625 3.859375,8.375 0,5.609375 -3.984375,8.609375 -3.96875,3.015625 -11.390625,3.015625 -4.0625,0 -8.703125,-0.890625 Q 15.375,64.15625 9.8125,62.3125 v 8.78125 q 5.625,1.5625 10.53125,2.34375 4.90625,0.78125 9.25,0.78125 11.234375,0 17.765625,-5.109375 6.546875,-5.09375 6.546875,-13.78125 0,-6.0625 -3.46875,-10.234375 -3.46875,-4.171875 -9.859375,-5.78125 z"
             inkscape:connector-curvature="0"
             style="stroke-width:0.015625;stroke-linecap:butt;stroke-linejoin:round" />
          <use
             x="63.623047"
             xlink:href="#DejaVuSans-20"
             id="use350" />
          <use
             x="95.410156"
             xlink:href="#DejaVuSans-28"
             id="use352" />
          <path
             id="use354"
             d="m 166.20508,66.40625 q -7.60938,0 -11.45313,-7.5 -3.82812,-7.484375 -3.82812,-22.53125 0,-14.984375 3.82812,-22.484375 3.84375,-7.5 11.45313,-7.5 7.67187,0 11.5,7.5 3.84375,7.5 3.84375,22.484375 0,15.046875 -3.84375,22.53125 -3.82813,7.5 -11.5,7.5 z m 0,7.8125 q 12.26562,0 18.73437,-9.703125 6.46875,-9.6875 6.46875,-28.140625 0,-18.40625 -6.46875,-28.109375 -6.46875,-9.6875 -18.73437,-9.6875 -12.25,0 -18.71875,9.6875 -6.46875,9.703125 -6.46875,28.109375 0,18.453125 6.46875,28.140625 6.46875,9.703125 18.71875,9.703125 z"
             inkscape:connector-curvature="0"
             style="stroke-width:0.015625;stroke-linecap:butt;stroke-linejoin:round" />
          <use
             x="198.046875"
             xlink:href="#DejaVuSans-29"
             id="use356" />
        </g>
      </g>
      <g
         id="text_16">
        <!-- 9 (0) -->
        <g
           transform="translate(143.618182 176.225455)scale(0.1 -0.1)"
           id="g374">
          <defs
             id="defs362">
            <path
               d="M 703 97  L 703 672  Q 941 559 1184 500  Q 1428 441 1663 441  Q 2288 441 2617 861  Q 2947 1281 2994 2138  Q 2813 1869 2534 1725  Q 2256 1581 1919 1581  Q 1219 1581 811 2004  Q 403 2428 403 3163  Q 403 3881 828 4315  Q 1253 4750 1959 4750  Q 2769 4750 3195 4129  Q 3622 3509 3622 2328  Q 3622 1225 3098 567  Q 2575 -91 1691 -91  Q 1453 -91 1209 -44  Q 966 3 703 97  z M 1959 2075  Q 2384 2075 2632 2365  Q 2881 2656 2881 3163  Q 2881 3666 2632 3958  Q 2384 4250 1959 4250  Q 1534 4250 1286 3958  Q 1038 3666 1038 3163  Q 1038 2656 1286 2365  Q 1534 2075 1959 2075  z "
               id="DejaVuSans-39"
               transform="scale(0.015625)" />
          </defs>
          <use
             xlink:href="#DejaVuSans-39"
             id="use364" />
          <use
             x="63.623047"
             xlink:href="#DejaVuSans-20"
             id="use366" />
          <use
             x="95.410156"
             xlink:href="#DejaVuSans-28"
             id="use368" />
          <path
             id="use370"
             d="m 166.20508,66.40625 q -7.60938,0 -11.45313,-7.5 -3.82812,-7.484375 -3.82812,-22.53125 0,-14.984375 3.82812,-22.484375 3.84375,-7.5 11.45313,-7.5 7.67187,0 11.5,7.5 3.84375,7.5 3.84375,22.484375 0,15.046875 -3.84375,22.53125 -3.82813,7.5 -11.5,7.5 z m 0,7.8125 q 12.26562,0 18.73437,-9.703125 6.46875,-9.6875 6.46875,-28.140625 0,-18.40625 -6.46875,-28.109375 -6.46875,-9.6875 -18.73437,-9.6875 -12.25,0 -18.71875,9.6875 -6.46875,9.703125 -6.46875,28.109375 0,18.453125 6.46875,28.140625 6.46875,9.703125 18.71875,9.703125 z"
             inkscape:connector-curvature="0"
             style="stroke-width:0.015625;stroke-linecap:butt;stroke-linejoin:round" />
          <use
             x="198.046875"
             xlink:href="#DejaVuSans-29"
             id="use372" />
        </g>
      </g>
      <g
         id="text_17">
        <!-- 16 (2) -->
        <g
           transform="translate(312.709091 110.334545)scale(0.1 -0.1)"
           id="g389">
          <path
             id="use377"
             d="m 12.40625,8.296875 h 16.109375 v 55.625 L 10.984375,60.40625 v 8.984375 l 17.4375,3.515625 H 38.28125 V 8.296875 H 54.390625 V 0 H 12.40625 Z"
             inkscape:connector-curvature="0"
             style="stroke-width:0.015625;stroke-linecap:butt;stroke-linejoin:round" />
          <path
             id="use379"
             d="m 96.638672,40.375 q -6.640625,0 -10.53125,-4.546875 -3.875,-4.53125 -3.875,-12.4375 0,-7.859375 3.875,-12.4375 3.890625,-4.5625 10.53125,-4.5625 6.640628,0 10.515628,4.5625 3.875,4.578125 3.875,12.4375 0,7.90625 -3.875,12.4375 Q 103.2793,40.375 96.638672,40.375 Z M 116.2168,71.296875 V 62.3125 q -3.71875,1.75 -7.5,2.671875 -3.78125,0.9375 -7.5,0.9375 -9.765628,0 -14.921878,-6.59375 -5.140625,-6.59375 -5.875,-19.921875 2.875,4.25 7.21875,6.515625 4.359375,2.265625 9.578125,2.265625 10.984373,0 17.359373,-6.671875 6.375,-6.65625 6.375,-18.125 0,-11.234375 -6.64062,-18.03125 -6.64063,-6.78125 -17.671878,-6.78125 -12.65625,0 -19.34375,9.6875 -6.6875,9.703125 -6.6875,28.109375 0,17.28125 8.203125,27.5625 8.203125,10.28125 22.015623,10.28125 3.71875,0 7.5,-0.734375 3.78125,-0.734375 7.89063,-2.1875 z"
             inkscape:connector-curvature="0"
             style="stroke-width:0.015625;stroke-linecap:butt;stroke-linejoin:round" />
          <use
             x="127.246094"
             xlink:href="#DejaVuSans-20"
             id="use381" />
          <use
             x="159.033203"
             xlink:href="#DejaVuSans-28"
             id="use383" />
          <path
             id="use385"
             d="m 217.23437,8.296875 h 34.42188 V 0 H 205.375 v 8.296875 q 5.60937,5.8125 15.29687,15.59375 9.70313,9.796875 12.1875,12.640625 4.73438,5.3125 6.60938,9 1.89062,3.6875 1.89062,7.25 0,5.8125 -4.07812,9.46875 -4.07813,3.671875 -10.625,3.671875 -4.64063,0 -9.79688,-1.609375 -5.14062,-1.609375 -11,-4.890625 v 9.96875 q 5.95313,2.390625 11.125,3.609375 5.1875,1.21875 9.48438,1.21875 11.32812,0 18.0625,-5.671875 6.73437,-5.65625 6.73437,-15.125 0,-4.5 -1.6875,-8.53125 -1.67187,-4.015625 -6.125,-9.484375 -1.21875,-1.421875 -7.76562,-8.1875 -6.53125,-6.765625 -18.45313,-18.921875 z"
             inkscape:connector-curvature="0"
             style="stroke-width:0.015625;stroke-linecap:butt;stroke-linejoin:round" />
          <use
             x="261.669922"
             xlink:href="#DejaVuSans-29"
             id="use387" />
        </g>
      </g>
      <g
         id="text_18">
        <!-- 13 (1) -->
        <g
           transform="translate(245.072727 176.225455)scale(0.1 -0.1)"
           id="g404">
          <path
             id="use392"
             d="m 12.40625,8.296875 h 16.109375 v 55.625 L 10.984375,60.40625 v 8.984375 l 17.4375,3.515625 H 38.28125 V 8.296875 H 54.390625 V 0 H 12.40625 Z"
             inkscape:connector-curvature="0"
             style="stroke-width:0.015625;stroke-linecap:butt;stroke-linejoin:round" />
          <path
             id="use394"
             d="M 104.20117,39.3125 Q 111.2793,37.796875 115.24805,33 q 3.98437,-4.78125 3.98437,-11.8125 0,-10.78125 -7.42187,-16.703125 -7.42188,-5.90625 -21.093753,-5.90625 -4.578125,0 -9.4375,0.90625 -4.859375,0.90625 -10.03125,2.71875 v 9.515625 q 4.09375,-2.390625 8.96875,-3.609375 4.890625,-1.21875 10.21875,-1.21875 9.265625,0 14.125003,3.65625 4.85937,3.65625 4.85937,10.640625 0,6.453125 -4.51562,10.078125 -4.51563,3.640625 -12.562503,3.640625 h -8.5 v 8.109375 h 8.890625 q 7.265625,0 11.124998,2.90625 3.85938,2.90625 3.85938,8.375 0,5.609375 -3.98438,8.609375 -3.968748,3.015625 -11.390623,3.015625 -4.0625,0 -8.703125,-0.890625 -4.640625,-0.875 -10.203125,-2.71875 v 8.78125 q 5.625,1.5625 10.53125,2.34375 4.90625,0.78125 9.25,0.78125 11.234373,0 17.765623,-5.109375 6.54688,-5.09375 6.54688,-13.78125 0,-6.0625 -3.46875,-10.234375 -3.46875,-4.171875 -9.85938,-5.78125 z"
             inkscape:connector-curvature="0"
             style="stroke-width:0.015625;stroke-linecap:butt;stroke-linejoin:round" />
          <use
             x="127.246094"
             xlink:href="#DejaVuSans-20"
             id="use396" />
          <use
             x="159.033203"
             xlink:href="#DejaVuSans-28"
             id="use398" />
          <path
             id="use400"
             d="m 210.45312,8.296875 h 16.10938 v 55.625 L 209.03125,60.40625 v 8.984375 l 17.4375,3.515625 h 9.85937 V 8.296875 H 252.4375 V 0 h -41.98438 z"
             inkscape:connector-curvature="0"
             style="stroke-width:0.015625;stroke-linecap:butt;stroke-linejoin:round" />
          <use
             x="261.669922"
             xlink:href="#DejaVuSans-29"
             id="use402" />
        </g>
      </g>
      <g
         id="text_19">
        <!-- 11 (0) -->
        <g
           transform="translate(211.254545 242.116364)scale(0.1 -0.1)"
           id="g419">
          <path
             id="use407"
             d="m 12.40625,8.296875 h 16.109375 v 55.625 L 10.984375,60.40625 v 8.984375 l 17.4375,3.515625 H 38.28125 V 8.296875 H 54.390625 V 0 H 12.40625 Z"
             inkscape:connector-curvature="0"
             style="stroke-width:0.015625;stroke-linecap:butt;stroke-linejoin:round" />
          <path
             id="use409"
             d="m 76.029297,8.296875 h 16.109375 v 55.625 L 74.607422,60.40625 v 8.984375 l 17.4375,3.515625 H 101.9043 V 8.296875 h 16.10937 V 0 H 76.029297 Z"
             inkscape:connector-curvature="0"
             style="stroke-width:0.015625;stroke-linecap:butt;stroke-linejoin:round" />
          <use
             x="127.246094"
             xlink:href="#DejaVuSans-20"
             id="use411" />
          <use
             x="159.033203"
             xlink:href="#DejaVuSans-28"
             id="use413" />
          <path
             id="use415"
             d="m 229.82812,66.40625 q -7.60937,0 -11.45312,-7.5 -3.82813,-7.484375 -3.82813,-22.53125 0,-14.984375 3.82813,-22.484375 3.84375,-7.5 11.45312,-7.5 7.67188,0 11.5,7.5 3.84375,7.5 3.84375,22.484375 0,15.046875 -3.84375,22.53125 -3.82812,7.5 -11.5,7.5 z m 0,7.8125 q 12.26563,0 18.73438,-9.703125 6.46875,-9.6875 6.46875,-28.140625 0,-18.40625 -6.46875,-28.109375 -6.46875,-9.6875 -18.73438,-9.6875 -12.25,0 -18.71875,9.6875 -6.46875,9.703125 -6.46875,28.109375 0,18.453125 6.46875,28.140625 6.46875,9.703125 18.71875,9.703125 z"
             inkscape:connector-curvature="0"
             style="stroke-width:0.015625;stroke-linecap:butt;stroke-linejoin:round" />
          <use
             x="261.669922"
             xlink:href="#DejaVuSans-29"
             id="use417" />
        </g>
      </g>
      <g
         id="text_20">
        <!-- 14 (0) -->
        <g
           transform="translate(278.890909 242.116364)scale(0.1 -0.1)"
           id="g434">
          <path
             id="use422"
             d="m 12.40625,8.296875 h 16.109375 v 55.625 L 10.984375,60.40625 v 8.984375 l 17.4375,3.515625 H 38.28125 V 8.296875 H 54.390625 V 0 H 12.40625 Z"
             inkscape:connector-curvature="0"
             style="stroke-width:0.015625;stroke-linecap:butt;stroke-linejoin:round" />
          <path
             id="use424"
             d="M 101.41992,64.3125 76.513672,25.390625 h 24.906248 z m -2.593748,8.59375 H 111.23242 V 25.390625 h 10.40625 V 17.1875 H 111.23242 V 0 h -9.8125 V 17.1875 H 68.513672 v 9.515625 z"
             inkscape:connector-curvature="0"
             style="stroke-width:0.015625;stroke-linecap:butt;stroke-linejoin:round" />
          <use
             x="127.246094"
             xlink:href="#DejaVuSans-20"
             id="use426" />
          <use
             x="159.033203"
             xlink:href="#DejaVuSans-28"
             id="use428" />
          <path
             id="use430"
             d="m 229.82812,66.40625 q -7.60937,0 -11.45312,-7.5 -3.82813,-7.484375 -3.82813,-22.53125 0,-14.984375 3.82813,-22.484375 3.84375,-7.5 11.45312,-7.5 7.67188,0 11.5,7.5 3.84375,7.5 3.84375,22.484375 0,15.046875 -3.84375,22.53125 -3.82812,7.5 -11.5,7.5 z m 0,7.8125 q 12.26563,0 18.73438,-9.703125 6.46875,-9.6875 6.46875,-28.140625 0,-18.40625 -6.46875,-28.109375 -6.46875,-9.6875 -18.73438,-9.6875 -12.25,0 -18.71875,9.6875 -6.46875,9.703125 -6.46875,28.109375 0,18.453125 6.46875,28.140625 6.46875,9.703125 18.71875,9.703125 z"
             inkscape:connector-curvature="0"
             style="stroke-width:0.015625;stroke-linecap:butt;stroke-linejoin:round" />
          <use
             x="261.669922"
             xlink:href="#DejaVuSans-29"
             id="use432" />
        </g>
      </g>
      <g
         id="text_21">
        <!-- 20 (1) -->
        <g
           transform="translate(380.345455 176.225455)scale(0.1 -0.1)"
           id="g449">
          <path
             id="use437"
             d="M 19.1875,8.296875 H 53.609375 V 0 H 7.328125 v 8.296875 q 5.609375,5.8125 15.296875,15.59375 9.703125,9.796875 12.1875,12.640625 4.734375,5.3125 6.609375,9 1.890625,3.6875 1.890625,7.25 0,5.8125 -4.078125,9.46875 -4.078125,3.671875 -10.625,3.671875 -4.640625,0 -9.796875,-1.609375 -5.140625,-1.609375 -11,-4.890625 v 9.96875 Q 13.765625,71.78125 18.9375,73 q 5.1875,1.21875 9.484375,1.21875 11.328125,0 18.0625,-5.671875 6.734375,-5.65625 6.734375,-15.125 0,-4.5 -1.6875,-8.53125 Q 49.859375,40.875 45.40625,35.40625 44.1875,33.984375 37.640625,27.21875 31.109375,20.453125 19.1875,8.296875 Z"
             inkscape:connector-curvature="0"
             style="stroke-width:0.015625;stroke-linecap:butt;stroke-linejoin:round" />
          <path
             id="use439"
             d="m 95.404297,66.40625 q -7.609375,0 -11.453125,-7.5 -3.828125,-7.484375 -3.828125,-22.53125 0,-14.984375 3.828125,-22.484375 3.84375,-7.5 11.453125,-7.5 7.671873,0 11.500003,7.5 3.84375,7.5 3.84375,22.484375 0,15.046875 -3.84375,22.53125 -3.82813,7.5 -11.500003,7.5 z m 0,7.8125 q 12.265623,0 18.734373,-9.703125 6.46875,-9.6875 6.46875,-28.140625 0,-18.40625 -6.46875,-28.109375 -6.46875,-9.6875 -18.734373,-9.6875 -12.25,0 -18.71875,9.6875 -6.46875,9.703125 -6.46875,28.109375 0,18.453125 6.46875,28.140625 6.46875,9.703125 18.71875,9.703125 z"
             inkscape:connector-curvature="0"
             style="stroke-width:0.015625;stroke-linecap:butt;stroke-linejoin:round" />
          <use
             x="127.246094"
             xlink:href="#DejaVuSans-20"
             id="use441" />
          <use
             x="159.033203"
             xlink:href="#DejaVuSans-28"
             id="use443" />
          <path
             id="use445"
             d="m 210.45312,8.296875 h 16.10938 v 55.625 L 209.03125,60.40625 v 8.984375 l 17.4375,3.515625 h 9.85937 V 8.296875 H 252.4375 V 0 h -41.98438 z"
             inkscape:connector-curvature="0"
             style="stroke-width:0.015625;stroke-linecap:butt;stroke-linejoin:round" />
          <use
             x="261.669922"
             xlink:href="#DejaVuSans-29"
             id="use447" />
        </g>
      </g>
      <g
         id="text_22">
        <!-- 17 (0) -->
        <g
           transform="translate(346.527273 242.116364)scale(0.1 -0.1)"
           id="g464">
          <path
             id="use452"
             d="m 12.40625,8.296875 h 16.109375 v 55.625 L 10.984375,60.40625 v 8.984375 l 17.4375,3.515625 H 38.28125 V 8.296875 H 54.390625 V 0 H 12.40625 Z"
             inkscape:connector-curvature="0"
             style="stroke-width:0.015625;stroke-linecap:butt;stroke-linejoin:round" />
          <use
             x="63.623047"
             xlink:href="#DejaVuSans-37"
             id="use454" />
          <use
             x="127.246094"
             xlink:href="#DejaVuSans-20"
             id="use456" />
          <use
             x="159.033203"
             xlink:href="#DejaVuSans-28"
             id="use458" />
          <path
             id="use460"
             d="m 229.82812,66.40625 q -7.60937,0 -11.45312,-7.5 -3.82813,-7.484375 -3.82813,-22.53125 0,-14.984375 3.82813,-22.484375 3.84375,-7.5 11.45312,-7.5 7.67188,0 11.5,7.5 3.84375,7.5 3.84375,22.484375 0,15.046875 -3.84375,22.53125 -3.82812,7.5 -11.5,7.5 z m 0,7.8125 q 12.26563,0 18.73438,-9.703125 6.46875,-9.6875 6.46875,-28.140625 0,-18.40625 -6.46875,-28.109375 -6.46875,-9.6875 -18.73438,-9.6875 -12.25,0 -18.71875,9.6875 -6.46875,9.703125 -6.46875,28.109375 0,18.453125 6.46875,28.140625 6.46875,9.703125 18.71875,9.703125 z"
             inkscape:connector-curvature="0"
             style="stroke-width:0.015625;stroke-linecap:butt;stroke-linejoin:round" />
          <use
             x="261.669922"
             xlink:href="#DejaVuSans-29"
             id="use462" />
        </g>
      </g>
    </g>
  </g>
  <defs
     id="defs472">
    <clipPath
       id="p688fe006f5">
      <rect
         height="217.44"
         width="334.8"
         x="54"
         y="34.56"
         id="rect469" />
    </clipPath>
  </defs>
</svg>
